<?xml version="1.0"?>
<svg xmlns="http://www.w3.org/2000/svg" id="Layer_1" data-name="Layer 1" viewBox="0 0 128 128" width="512" height="512"><path d="M112.25,52.333h-3.015V37.859A10.487,10.487,0,0,0,98.76,27.384H24.475A10.487,10.487,0,0,0,14,37.859V90.141a10.487,10.487,0,0,0,10.475,10.475H98.76a10.487,10.487,0,0,0,10.475-10.475V75.667h3.015a1.751,1.751,0,0,0,1.75-1.75V54.083A1.751,1.751,0,0,0,112.25,52.333Zm-6.515,37.808a6.983,6.983,0,0,1-6.975,6.975H24.475A6.983,6.983,0,0,1,17.5,90.141V37.859a6.983,6.983,0,0,1,6.975-6.975H98.76a6.982,6.982,0,0,1,6.744,5.225H28a1.75,1.75,0,0,0,0,3.5h77.735V52.333H90.291a11.667,11.667,0,0,0,0,23.334h15.444ZM110.5,72.167H90.291a8.167,8.167,0,0,1,0-16.334H110.5Z"/><path d="M86.453,64a4.417,4.417,0,1,0,4.417-4.417A4.422,4.422,0,0,0,86.453,64Z"/></svg>
